<svg width="1920" height="1080" viewBox="0 0 1920 1080" fill="none" xmlns="http://www.w3.org/2000/svg">
<rect width="1920" height="1080" fill="white"/>
<rect width="1920" height="1080" fill="url(#paint0_linear)"/>
<mask id="mask0" mask-type="alpha" maskUnits="userSpaceOnUse" x="0" y="0" width="1920" height="1080">
<path d="M0 0H1920V1080H0V0Z" fill="#E3E4E5"/>
</mask>
<g mask="url(#mask0)">
<path d="M-217.933 300.352L-389.614 201.505L-184.664 164.462M-430.4 344.103L-217.93 300.35L-251.27 436.869M-251.27 436.869L-85.1822 514.842M-251.27 436.869L-58.0754 384.043M-349.285 60.3701L-184.661 164.465M-184.664 164.462L-217.932 300.349L-30.8884 253.112M-184.664 164.462L-151.591 29.0245M-184.664 164.462L-30.8923 252.924M-184.664 164.462L-3.62292 121.993L-30.8884 253.112M-309.425 -79.2364L-151.593 29.0247M-151.593 29.0247L-349.288 60.3687M-151.593 29.0247L-118.631 -105.78M-151.593 29.0247L-3.62565 121.992M-386.071 988.417L-193.315 1034.38M-193.321 1034.39L-342.504 1095.76M-193.318 1034.38L-220.047 1163.66M-193.318 1034.38L-166.269 904.844M-193.318 1034.38L-15.3573 1070.35M-193.318 1034.38L5.92059 949.091M-220.047 1163.66L-36.2421 1190.71M-220.047 1163.66L-15.234 1070.34M-352.286 849.68L-166.389 904.852M-166.269 904.844L-386.075 988.418M-166.269 904.844L5.92059 949.091M-139.305 775.056L-318.409 711.499L-112.264 644.951M-352.285 849.677L-139.302 775.056L27.224 826.889M-139.303 775.059L-166.267 904.847L27.224 826.889M-284.762 573.898L-112.264 644.951M-112.264 644.951L-85.184 514.844M-112.265 644.947L-139.305 775.053L48.7104 703.793M-85.184 514.844L-284.759 574.087M-85.184 514.844L-58.0779 384.043L-217.934 300.349M-85.184 514.844L70.386 579.756M-85.184 514.844L92.2042 454.761M-58.0754 384.043L-30.8884 253.112M-58.0754 384.043L92.2061 454.761M-58.0754 384.043L114.173 328.818L-30.8884 253.112M-30.8884 253.112L136.364 201.861M-3.62565 121.992L23.6772 -9.38518M-3.62565 121.992L136.361 201.863M-3.62565 121.992L158.699 73.9507L152.344 51.8485M23.6766 -9.38144L-151.472 28.8941M-36.2421 1190.71L-208.034 1273.93M-36.2421 1190.71L134.573 1210.14M-36.2402 1190.71L-57.1445 1310.13M-15.234 1070.34L5.92059 949.091M-15.234 1070.34L150.737 1097.45L307.297 1118.01L295.157 1223.11L456.405 1131.8M-15.2324 1070.34L-36.2402 1190.77M5.92059 949.091L167.134 984.068M27.224 826.889C44.0805 730.377 53.5313 676.266 70.3879 579.754M27.2196 826.888L5.91868 949.091L183.905 868.903M-112.265 644.954L48.7103 703.8M70.386 579.756L-112.427 644.958M70.386 579.756L217.534 634.167L48.7089 703.672M92.2061 454.761L70.3851 579.753L234.792 514.509M92.2061 454.761L234.793 514.512M92.2061 454.761L252.267 393.337M114.169 328.82L92.0396 454.769M136.364 201.861L114.252 328.627M136.364 201.861L158.703 73.9529M136.364 201.861L269.919 270.523M136.364 201.861L287.865 146.123M23.6812 -9.38299L158.703 73.9529M158.703 73.9529L287.865 146.123M134.573 1210.14L150.738 1097.45L-36.2424 1190.71M134.573 1210.14L307.299 1118.01L456.408 1131.8M167.134 984.068L-15.2753 1070.35M167.134 984.068L150.738 1097.46L319.649 1011.14M183.911 868.902L27.2255 826.887L200.533 752.297L183.908 868.905M183.908 868.905L167.299 984.063M183.908 868.905L345.02 791.765M48.7098 703.797L200.529 752.296M200.529 752.296L217.531 634.163M200.529 752.296L345.017 791.764M200.529 752.296L358.036 679.198L493.231 716.067M234.793 514.512L217.533 634.163L371.263 564.612M234.793 514.512L252.268 393.34M252.267 393.337L114.17 328.818L269.915 270.519M252.267 393.337L384.736 448.066L371.261 564.616M269.918 270.521L252.269 393.337M287.865 146.123L282.47 118.631M287.863 146.121L269.795 270.527M287.863 146.121L412.583 208.452M287.863 146.121L407.58 175.722M167.136 984.065L319.65 1011.13L465.157 1031.17L456.408 1131.8M319.652 1011.14L307.301 1118.01L465.159 1031.17M183.909 868.902L332.372 902.359M332.207 902.368L167.139 984.32M332.208 902.363L319.648 1011.13L474.434 928.383M345.02 791.765L358.038 679.202M345.02 791.765L483.754 823.396L474.436 928.388L618.1 847.959M345.02 791.765L493.232 716.07M345.022 791.766L332.211 902.37L483.757 823.398M217.535 634.163L358.038 679.072M358.038 679.202L371.263 564.612M358.038 679.202L502.952 606.341M234.795 514.512L371.266 564.615M371.263 564.612L502.95 606.34M234.671 514.514L384.738 448.064L512.909 494.146L644.784 421.731L523.064 379.428L384.731 447.752M269.917 270.524L398.539 329.366M398.539 329.366L252.514 393.331M398.539 329.366L412.583 208.452M398.539 329.366L533.458 262.121L651.929 307.884M398.538 329.362L384.819 448.06M412.583 208.452L270.082 270.641M412.583 208.452L533.621 262.113L528.805 224.15M412.583 208.452L528.803 224.148M456.408 1131.8L447.701 1230.34L599.805 1139.96M456.408 1131.8L599.725 1139.96M456.408 1131.8L605.758 1045.04M465.159 1031.17L474.438 928.387L611.832 947.734M465.159 1031.17L611.832 947.734M332.21 902.366L474.435 928.322M493.232 716.07L483.756 823.459M493.232 716.07L502.952 606.341M493.232 716.07L631.1 640.461M502.952 606.341L631.1 640.461M502.952 606.341L637.869 532.547L512.911 494.147L371.101 564.621M512.912 494.144L502.791 606.343M398.541 329.366L523.149 379.425M523.069 379.425L512.995 494.14M599.805 1139.96L738.93 1142.93L742.286 1053.28M599.805 1139.96L742.286 1053.28M599.807 1139.96L594.014 1232.54L738.934 1142.93M465.154 1031.17L605.594 1045.05M605.758 1045.04L611.829 947.732M605.758 1045.04L742.286 1053.28M605.758 1045.04L745.754 961.041M605.757 1045.04L599.799 1139.7M611.832 947.734L618.102 847.961M483.755 823.393L618.101 847.955M618.101 847.955L749.336 866.092M618.101 847.955L752.946 768.373M493.232 716.065L624.686 745.524M624.52 745.406L483.752 823.268M624.52 745.406L631.101 640.457M624.52 745.406L756.785 667.684L753.031 768.557M618.099 847.833L624.521 745.409L752.946 768.25M631.1 640.461L756.784 667.688M637.866 532.549L631.099 640.463M644.785 421.728L637.868 532.544L760.603 563.855L756.784 667.688M644.785 421.728L764.604 456.676M644.785 421.728L768.711 346.599L651.929 307.884M651.929 307.884L644.78 421.48M651.93 307.882L523.066 379.426L533.458 262.117L647.177 264.818L642.772 224.949L528.801 224.147M738.932 1142.93L735.694 1230.12L875.184 1141.04L874.135 1222.92M742.286 1053.28L745.754 961.041M611.833 947.731L745.759 961.041M745.754 961.041L749.296 866.096M745.754 961.041L877.319 968.523L742.283 1053.09M745.754 961.041L878.457 878.393L1006.57 885.066M749.296 866.096L611.79 947.734M749.296 866.096L752.946 768.373M749.296 866.096L879.612 785.052M752.946 768.373L880.793 688.558M756.784 667.688L880.875 688.557M756.784 667.688L882.071 588.79M760.604 563.851L631.181 640.391M764.604 456.676L637.863 532.292M764.604 456.676L760.604 563.854M764.604 456.676L768.713 346.6M764.604 456.676L883.32 485.308M764.604 456.676L884.673 378.675L883.328 485.749M760.604 563.854L882.074 588.789M760.604 563.854L883.326 485.56L882.074 588.792L1001.89 508.03M738.932 1142.93L875.185 1141.04M875.185 1141.04L876.217 1056.2L738.809 1142.93M875.185 1141.04L1009.67 1134.43L874.141 1223.24M742.288 1053.28L876.219 1056.2M876.219 1056.2L1008.71 1054.21M876.219 1056.2L1007.65 971.084M876.215 1056.01L877.32 968.526L1007.64 970.896M749.294 866.092L878.456 878.391M878.456 878.391L879.614 785.048L1005.47 795.901M878.456 878.391L1005.47 795.901M878.459 878.391L877.322 968.523L1006.57 885.065M752.944 768.376L879.612 785.052M879.612 785.052L880.792 688.56M879.612 785.052L1004.32 703.469M880.793 688.558L1004.32 703.469M880.793 688.558L1003.14 607.572L1124.7 620.544L1004.32 703.469M882.071 588.79L880.833 688.558M882.071 588.79L1003.18 607.572M768.712 346.596L884.672 378.671M884.672 378.671L1000.6 404.578M884.672 378.671L878.823 325.389M1009.67 1134.43L1010.66 1212.08L1143.66 1123.31L1140.81 1047.25M1008.71 1054.2L875.393 1141.22M1008.7 1054.21L1009.67 1134.44L1143.66 1123.32L1146.41 1196.74L1278.26 1107.64L1282.65 1177.1M1008.7 1054.21L1007.64 971.085M1008.7 1054.21L1140.81 1047.25M1007.65 971.084L1006.57 885.065M1007.65 971.084L1137.83 968.295M1007.65 971.084L1134.74 886.322L1137.82 968.042M1006.57 885.065L1005.48 795.901M1006.57 885.065L1134.74 886.386M1006.57 885.065L1131.56 801.268L1128.18 712.636M1005.47 795.901L1004.32 703.467M1005.47 795.901L1128.18 712.636M1004.32 703.469L1003.13 607.572M1004.32 703.469L1128.18 712.636M883.324 485.56L1001.88 508.029M1001.88 508.029L1003.13 607.575L1121.11 524.68M1001.88 508.029L1121.11 524.678M1001.89 508.03L1000.6 404.582M1001.89 508.03L1117.31 424.603L1000.6 404.582M1000.59 404.582L883.527 485.552M1000.6 404.582L993.794 346.171M1000.6 404.582L1109.26 361.017L993.794 346.171M1140.81 1047.25L1009.66 1134.18M1140.81 1047.25L1273.64 1035.49M1140.81 1047.25L1268.89 960.44M1137.83 968.295L1268.89 960.437M1137.83 968.295L1264 882.312L1258.76 800.99L1388.19 795.273M1137.83 968.299L1008.58 1054.21M1137.82 968.301L1140.81 1047.26M1005.47 795.904L1131.56 801.271M1131.56 801.271L1134.78 886.388M1131.56 801.271L1253.37 716.211L1128.18 712.636M1128.18 712.636L1124.7 620.546M1128.18 712.636L1247.75 627.73M1121.11 524.678L1124.7 620.669M1121.11 524.678L1235.71 438.828M1117.3 424.604L1121.1 524.554M1117.3 424.604L1235.71 438.894M1117.3 424.604L1226.12 370.018M1278.34 1107.64L1143.66 1123.31L1273.64 1035.48M1273.64 1035.48L1278.26 1107.64M1273.64 1035.48L1268.89 960.437M1273.64 1035.48L1408.3 1018.74M1273.64 1035.48L1401.94 947.404L1268.89 960.44M1268.89 960.44L1395.2 872.876M1263.92 882.318L1134.74 886.325L1258.76 800.992L1253.37 716.213L1380.83 714.161M1264 882.315L1268.97 960.437M1131.56 801.272L1258.8 801.055M1124.7 620.546L1247.75 627.731L1373.14 629.159M1247.75 627.728L1253.54 716.206M1121.11 524.675L1241.86 535.475M1241.85 535.35L1124.87 620.536M1241.85 535.35L1247.71 627.731L1365.11 540.391L1481.22 450.077L1491.89 539.688M1241.85 535.35L1365.11 540.388M1241.85 535.35L1356.7 447.351L1467.51 370.531M1235.71 438.828L1241.64 535.36M1235.71 438.828L1345.21 373.26L1356.7 447.353M1420.53 1152.99L1282.65 1177.1L1414.6 1087.18M1420.53 1152.99L1414.6 1087.18M1420.53 1152.99L1561.33 1124.1M1420.53 1152.99L1553.97 1061.88M1286.88 1243.98L1420.53 1152.98L1426.24 1216.22M1414.6 1087.17L1278.25 1107.64L1408.42 1018.73M1414.6 1087.18L1408.42 1018.74M1414.6 1087.18L1553.96 1061.87M1414.6 1087.18L1546.25 996.828M1408.42 1018.74L1546.26 996.827M1408.42 1018.74L1538.17 928.961M1401.94 947.406L1408.42 1018.73M1401.94 947.406L1538.16 928.964M1401.94 947.406L1529.73 858.09M1395.28 872.939L1264 882.316L1388.19 795.277M1395.2 872.878L1401.94 947.343M1395.2 872.878L1388.19 795.273M1395.2 872.878L1529.89 858.017M1395.2 872.878L1520.95 783.952M1388.19 795.273L1380.83 714.159M1388.19 795.277L1520.95 783.827M1388.19 795.277L1511.69 706.375L1520.95 783.952M1380.83 714.161L1373.15 629.283L1502.03 625.034L1381.03 714.15M1380.83 714.161L1511.57 706.38M1380.83 714.158L1258.76 800.737M1253.37 716.211L1373.15 629.28L1491.89 539.685L1502.03 625.037M1365.1 540.389L1373.15 629.22M1365.1 540.389L1356.7 447.353M1365.1 540.389L1491.89 539.622M1235.71 438.83L1356.7 447.354M1356.7 447.353L1481.21 450.073M1561.37 1124.1L1426.28 1216.22M1561.37 1124.1L1568.37 1183.89L1706.54 1090.01M1561.37 1124.1L1706.54 1090.01M1561.37 1124.1L1697.72 1031.11L1553.96 1061.87M1553.96 1061.87L1688.52 969.332M1561.38 1124.16L1538.17 928.961M1538.17 928.961L1678.86 904.614M1538.17 928.961L1668.81 837.077M1529.73 858.086L1538.16 928.96M1529.73 858.086L1668.81 837.075M1529.73 858.086L1658.26 766.724M1520.95 783.952L1529.73 858.087M1520.95 783.952L1658.26 766.725M1520.95 783.952L1647.19 692.617M1502.03 625.037L1511.77 706.499M1502.03 625.037L1635.55 614.755L1647.18 692.617L1511.69 706.375L1635.55 614.753M1502.03 625.037L1623.31 532.949M1706.54 1090.01L1714.98 1146.34M1706.54 1090.01L1857.57 1050.09L1847.38 994.265M1706.54 1090.01L1847.38 994.265M1697.72 1031.11L1706.54 1090.14M1697.72 1031.11L1847.38 994.394M1697.72 1031.11L1836.68 935.758M1688.52 969.332L1836.68 935.754M1688.52 969.332L1825.53 874.554M1697.88 1030.98L1688.52 969.334L1546.26 996.827L1678.86 904.867M1678.86 904.862L1688.52 969.33M1668.81 837.077L1678.86 904.549M1668.81 837.077L1658.26 766.725M1668.81 837.077L1813.83 810.105M1668.81 837.077L1801.54 743.158M1658.26 766.725L1647.19 692.617M1658.26 766.724L1801.54 743.158M1658.26 766.724L1788.61 672.46L1647.19 692.617M1647.19 692.617L1775.04 598.071M1635.55 614.753L1623.3 532.95L1491.89 539.687M1635.55 614.753L1775.03 598.071M1635.55 614.753L1760.73 519.808M1623.31 532.949L1760.73 519.808M1623.31 532.949L1745.7 437.481M1481.22 450.074L1610.45 446.758M1610.45 446.758L1491.89 539.493M1610.45 446.758L1745.69 437.226M1610.45 446.758L1726.16 346.26M1610.44 446.758L1623.3 532.947M1857.56 1050.09L1714.9 1146.59L1732.8 1141.56M1857.56 1050.09L2016.19 1003.64M1857.56 1050.09L2004.67 950.828L2016.28 1003.7M1857.56 1050.09L1867.34 1103.6M1847.38 994.265L2004.67 950.828M1847.38 994.265L1992.53 895.459M1836.68 935.754L1992.53 895.459M1836.68 935.754L1979.8 837.595M1847.37 994.266L1825.53 874.557M1825.53 874.557L1979.8 837.594M1825.53 874.557L1966.48 776.542L1979.92 837.464M1801.54 743.158L1813.83 810.418M1813.83 810.418L1966.48 776.543M1813.83 810.418L1952.46 712.749L1937.71 645.333L1801.54 743.161M1788.61 672.462L1801.54 743.161M1801.54 743.161L1952.29 712.631M1775.04 598.071L1788.73 672.454M1775.04 598.071L1760.73 519.808M1745.7 437.481L1760.74 520.06M1745.7 437.481L1888.55 421.045M1867.35 1103.91L2016.28 1003.7L2027.35 1054.2L2017.88 1057.14M2016.28 1003.7L2184.83 949.629L2197.23 997.308M2016.28 1003.7L2171.8 899.392M1992.53 895.459L2004.67 950.826L2171.8 899.392M1992.53 895.459L2158.16 847.417L2004.71 950.825M1992.53 895.459L2143.86 792.509M1979.8 837.595L1992.53 895.586M1979.8 837.595L2143.86 792.637M1979.8 837.595L2128.81 734.861M1966.48 776.543L2128.81 734.861M1966.48 776.543L2113 674.22M1952.46 712.748L1966.49 776.669M1952.46 712.748L2113 674.347M1952.46 712.748L2096.36 610.402M1937.71 645.329L1788.61 672.458L1922.16 574.478L1775.03 598.068L1905.76 499.696M1922.16 574.482L1937.71 645.331M1905.76 499.697L1760.73 519.806L1888.46 420.795L1905.76 499.696M1905.76 499.696L1922.16 574.604M1905.76 499.696L2060.25 471.98M1905.76 499.696L2040.65 396.818L2012.94 293.455M2184.83 949.626L2027.31 1054.2M2184.83 949.626L2365.8 886.574M2184.83 949.626L2351.2 839.61M2197.23 997.308L2365.8 886.574M2197.23 997.308L2214.54 991.094L2251.5 977.696M2171.8 899.392L2184.82 949.249M2158.16 847.415L2171.8 899.39M2158.16 847.415L2336.06 790.149M2158.16 847.415L2320.1 738.58M2158.16 847.415L2128.81 734.861M2171.8 899.39L2351.2 839.608M2171.8 899.39L2336.06 790.336M2143.86 792.509L2320.1 738.58M2143.86 792.509L2303.23 684.213M2128.81 734.861L2113 674.22M2113 674.22L2096.36 610.401M2113 674.22L2285.77 626.973M2113 674.22L2267.03 566.634M1937.71 645.331L2096.36 610.402M2096.36 610.402L2267.03 566.634M2096.36 610.402L2247.32 502.934L2267.03 566.634M2078.79 543.22L1922.16 574.481L2060.25 471.983M2078.79 543.094L1937.59 645.335M2096.44 610.401L2078.79 543.095L2060.25 471.983M2060.25 471.983L2226.56 435.56M2060.25 471.983L2204.54 364.269M1888.46 420.798L2040.65 396.823M2040.65 396.823L2204.53 364.27L2226.35 435.57M2040.65 396.823L2171.5 254.187M2040.65 396.82L2060.25 471.982M2365.8 886.574L2379.63 931.49M2379.63 931.49L2562.52 812.838L2546.42 768.825M2379.63 931.49L2445.16 906.158L2463.5 920.112L2339.94 963.185M2351.2 839.61L2365.72 886.578M2351.2 839.61L2546.18 769.087M2351.2 839.61L2529.54 722.58M2336.06 790.336L2320.1 738.58M2336.06 790.336L2529.54 722.58M2336.06 790.336L2511.64 674.043M2336.06 790.338L2351.2 839.61M2320.1 738.58L2511.64 674.043M2320.1 738.58L2493.11 622.951M2303.3 684.018L2128.8 734.859L2285.77 626.97M2303.23 684.213L2320.02 738.582M2303.23 684.213L2285.77 626.973M2303.23 684.213L2493.03 622.955M2303.23 684.213L2473.47 569.196L2493.11 622.951M2285.77 626.973L2473.59 569.32M2285.77 626.973L2452.71 512.463M2267.03 566.634L2285.65 626.977M2267.03 566.634L2452.71 512.463M2267.03 566.634L2430.82 452.499M2247.31 502.931L2078.79 543.09L2226.55 435.557M2226.56 435.562L2247.32 502.935M2226.56 435.562L2407.65 389.123L2247.32 502.935M2226.56 435.562L2383.08 321.897L2343.57 204.573L2171.5 254.188M2247.32 502.935L2430.82 452.499M2562.52 812.835L2365.8 886.573L2546.42 768.825M2546.42 768.825L2529.54 722.58M2529.54 722.58L2742.65 641.908M2529.54 722.58L2722.85 596.658M2511.64 674.043L2493.11 622.951M2511.64 674.043L2529.38 722.585M2493.11 622.951L2702.26 549.046M2493.11 622.951L2680.44 498.837M2452.71 512.463L2473.47 569.199M2452.71 512.463L2657.43 446.157M2452.71 512.463L2632.99 389.943M2430.82 452.499L2407.64 389.122M2430.82 452.496L2452.71 512.46M2430.82 452.496L2632.99 389.943M2430.82 452.496L2607.31 330.692M2407.64 389.122L2607.32 330.69M2407.64 389.122L2580.02 267.852M2204.53 364.267L2383.08 321.894M2204.53 364.267L2171.5 254.183M2204.53 364.267L2343.57 204.57M2407.65 389.12L2383.09 321.894L2580.02 267.854M2761.6 684.928L2546.42 768.825L2742.66 641.91M2722.85 596.598L2511.64 674.046L2702.27 549.048M2680.44 498.84L2473.47 569.199L2657.42 446.159M15.9127 -26.1384L152.386 51.8524M152.346 51.8504L23.6787 -9.38304M152.346 51.8504L146.473 31.431L8.78685 -41.5395M152.346 51.8504L282.47 118.631M152.346 51.8504L277.481 93.2643L146.47 31.4298L15.9102 -26.1417M146.466 31.1149L141.078 12.4375L272.861 69.7737L395.084 91.4072M282.47 118.631L158.903 73.9461M282.47 118.631L277.484 93.2655M282.47 118.631L407.58 175.722M272.86 69.7703L146.472 31.4265M277.399 93.268L272.859 69.7733L398.935 117.446M136.037 -5.11793L268.555 47.8448L141.076 12.3747M272.86 69.7092L268.556 47.8425L395.082 91.3411M131.347 -21.5561L264.568 27.6026L136.037 -5.18194M264.567 27.5997L268.555 47.9048M264.567 27.5997L391.508 67.1198M264.567 27.5997L388.128 44.4614M260.85 8.54326L264.563 27.2852M260.85 8.54326L388.133 44.4606L391.51 67.1192L268.434 47.9112M260.85 8.54326L384.986 23.2416L257.361 -9.19932M407.58 175.722L412.297 208.466M407.58 175.722L528.805 224.15M403.197 145.482L277.484 93.2622L398.939 117.445M403.197 145.482L407.865 175.709M403.197 145.482L520.553 156.541M282.553 118.69L403.198 145.484L524.532 188.996M398.939 117.445L403.115 145.488M398.939 117.445L520.56 156.792M398.939 117.445L516.829 126.341M395.084 91.4072L398.937 117.446M395.084 91.4072L516.825 126.342L520.553 156.541M395.084 91.4072L513.383 98.2098L510.179 71.8285M391.508 67.1198L395.082 91.4056M391.508 67.1198L513.381 98.2093M388.128 44.4614L510.175 71.8309M388.128 44.4614L507.126 47.2084M388.131 44.4604L384.984 23.241L504.312 24.0877M384.988 23.2422L382.071 3.33594L504.317 24.0863M528.805 224.15L647.179 264.819M524.532 188.996L407.58 175.657M524.532 188.996L528.803 224.085M524.532 188.996L642.773 224.888M520.553 156.541L524.532 189.059L638.672 187.966L520.556 156.541M513.382 98.2116L516.825 126.344L634.901 153.617L520.43 156.548M510.175 71.8309L391.468 67.1217M510.175 71.8309L507.126 47.2084M384.981 23.2426L507.126 47.2084M504.317 24.0863L507.131 47.2076L624.956 63.4722M504.317 24.0863L621.997 37.0819M379.295 -15.3795L501.648 2.34592M501.648 2.34592L382.068 3.33421M501.648 2.34592L504.314 24.0873L619.272 12.3236L622.037 37.0809M501.648 2.34592L619.271 12.3211M501.648 2.34592L616.695 -11.0603M499.133 -18.0813L501.651 2.34429M647.179 264.819L652.092 307.878M647.179 264.819L758.796 253.749M642.774 224.951L638.67 187.968L634.903 153.614M642.774 224.951L758.753 253.75M642.774 224.951L754.319 212.311L868.368 230.044M634.903 153.614L631.344 121.52M634.903 153.614L750.224 173.753M634.903 153.614L746.346 137.766M631.344 121.52L516.908 126.338M631.344 121.52L628.028 91.5541M631.344 121.52L742.756 104.1M510.182 71.831L628.033 91.5569M628.028 91.5541L513.383 98.2072L631.343 121.517L746.183 137.77M628.028 91.5541L624.953 63.4694L736.182 42.9098M628.028 91.5541L742.796 104.097M624.956 63.4722L510.178 71.8327M624.956 63.4722L739.37 72.5658M621.997 37.0819L624.916 63.4711M621.997 37.0819L736.146 42.9118M621.997 37.0819L733.198 15.0142L730.402 -11.2548L619.271 12.3211M621.993 37.0844L507.087 47.2104M619.271 12.3211L733.196 15.0135M616.698 -11.0616L619.273 12.3203M647.179 264.816L763.53 298.072M763.537 298.388L651.932 307.883M763.537 298.388L758.796 253.749M763.537 298.388L878.827 325.391M763.534 298.386L768.549 346.603M758.796 253.749L868.368 230.044M638.667 187.967L754.316 212.311M754.316 212.308L758.791 253.747M750.228 173.94L638.672 188.154M750.232 173.94L754.324 212.498M750.232 173.94L863.669 187.478M750.232 173.94L859.299 147.356M746.346 137.766L742.756 104.097L855.187 109.933M746.346 137.766L859.299 147.356M750.228 173.753L746.348 137.768L855.189 109.935M739.37 72.5658L742.752 103.912M739.37 72.5658L736.185 42.9126L844.334 10.8889M739.373 72.565L628.031 91.5555M736.182 42.9098L733.196 15.0135M736.182 42.9098L847.747 41.9175M733.196 15.0135L844.327 10.7003M878.823 325.389L768.792 346.594M878.823 325.389L993.747 346.111M878.823 325.389L987.476 291.961M758.795 253.746L873.425 276.178M873.425 276.178L987.483 292.211M873.425 276.178L981.766 241.505M873.424 276.182L763.417 298.645M873.422 276.182L878.828 325.643M868.368 230.044L981.766 241.505M868.367 230.042L873.336 275.931M754.319 212.308L863.665 187.289L970.984 150.514M863.666 187.291L868.371 230.043M863.666 187.291L859.301 147.36M863.666 187.291L976.123 194.507L868.371 230.167M859.299 147.356L966.186 109.341M855.187 109.933L966.186 109.341M855.187 109.933L961.682 70.6726L966.188 109.343L971.067 150.514M855.191 109.933L859.306 147.545M739.369 72.5632L851.364 74.8889M851.368 74.893L742.761 104.291M851.368 74.8883L855.189 109.931M851.368 74.8883L847.75 41.9166M851.368 74.8883L961.725 70.6051M847.745 41.9174L739.367 72.5652M847.75 41.9166L844.332 10.8868M847.75 41.9166L957.428 34.3211L953.46 0.0412283L847.914 41.9108M733.195 14.951L841.111 -18.4484L844.329 10.8254M993.79 346.172L884.67 378.674M993.794 346.171L1101.79 301.941M987.477 291.964L993.792 346.174M981.766 241.505L987.641 291.954M981.766 241.505L1094.97 246.933M976.121 194.511L981.602 241.514M976.121 194.511L1088.3 195.569M976.121 194.511L1082.22 147.518M859.299 147.36L970.983 150.517M975.912 194.392L970.981 150.515L1082.22 147.521M966.186 109.341L1076.49 102.476M966.186 109.341L1071.14 60.127M851.287 74.8949L957.348 34.3274L961.602 70.676M844.332 10.8902L953.457 0.0442357M953.457 0.0442357L949.687 -32.2953L844.168 10.8948M953.457 0.0442357L1061.35 -17.3026L957.346 34.326L1066.04 20.286M953.457 0.0442357L1056.83 -52.8221M1117.31 424.602L1109.26 361.016L1226.13 370.014M1101.79 301.941L987.478 291.962L1094.8 246.938M1101.79 301.941L1109.26 361.016L1217.17 306.025M1101.79 301.941L1217.17 306.025M1094.8 246.938L1088.3 195.572L981.768 241.508M1094.8 246.938L1208.87 246.35L1101.78 301.939L1094.8 246.937M1088.3 195.569L1082.22 147.518M1088.3 195.569L1201.05 190.626M1088.3 195.569L1193.8 138.404M1082.22 147.518L1076.53 102.476M1076.53 102.476L971.109 150.636M1076.53 102.476L1071.14 60.127M1076.53 102.476L1186.92 89.3147M1076.53 102.476L1180.48 43.2306M1071.14 60.1299L961.685 70.674L1066.13 20.286M1071.14 60.127L1180.48 43.2939M1070.98 60.1331L1066.12 20.2828L1174.45 -0.227068L1071.15 60.444M1061.35 -17.3059L1066.16 20.2797M1061.35 -17.3059L1056.83 -52.8243M1061.35 -17.3059L1168.59 -41.2338L1066 20.2891M1061.35 -17.3059L1163.31 -79.9978M1226.13 370.013L1235.63 438.894M1217.17 306.025L1226.13 370.017M1217.17 306.025L1208.87 246.352M1217.17 306.025L1334.53 304.239M1217.17 306.025L1324.54 239.783M1201.05 190.626L1094.8 246.94M1201.05 190.626L1193.8 138.404M1201.05 190.626L1315.37 179.517M1201.05 190.626L1306.43 122.954M1201.05 190.628L1208.87 246.354M1193.8 138.406L1082.22 147.522L1186.93 89.3168M1193.8 138.404L1306.43 122.954L1298.21 69.8245M1193.8 138.404L1298.21 69.8245M1186.92 89.3147L1180.48 43.2303M1186.92 89.3147L1298.21 69.8213M1186.92 89.3147L1290.47 19.8221M1186.92 89.3172L1193.79 138.406M1180.48 43.2306L1174.45 -0.22526M1180.48 43.2306L1290.47 20.0749M1180.48 43.2306L1283.14 -27.3619M1174.45 -0.22526L1283.14 -27.3619M1174.45 -0.22526L1276.23 -71.9169M1168.6 -41.2363L1174.33 -0.224234M1226.13 370.018L1345.22 373.264M1334.73 304.23L1226.33 370.007M1334.73 304.23L1454.92 296.354M1334.73 304.23L1442.75 227.01M1345.42 373.068L1334.73 304.233L1324.54 239.786M1208.87 246.351L1324.54 239.783L1315.21 179.523L1208.88 246.605M1324.54 239.783L1442.91 227.004M1324.54 239.783L1431.52 162.1M1315.2 179.269L1306.43 122.95L1421.03 101.063M1298.21 69.8245L1411.14 43.7217L1306.31 122.956M1298.21 69.8245L1401.8 -10.371M1290.47 19.8221L1298.22 69.8859M1290.47 19.8221L1283.14 -27.3619M1290.47 19.8221L1401.8 -10.373L1515.32 -47.6428M1276.24 -71.9159L1283.14 -27.3607M1467.51 370.531L1345.22 373.263L1454.71 296.363L1431.52 162.1M1467.51 370.531L1594.13 361.649M1467.51 370.531L1578.79 282.167M1467.5 370.528L1481.3 450.07M1454.71 296.364L1467.5 370.531M1454.71 296.364L1578.78 282.169M1454.71 296.364L1564.47 207.809M1442.75 227.01L1564.48 207.807M1442.75 227.01L1551.03 138.008M1431.52 162.1L1315.2 179.521L1421.03 101.064M1431.52 162.1L1551.03 138.008M1431.52 162.1L1538.4 72.3969M1421.03 101.063L1411.14 43.7178M1421.03 101.063L1538.41 72.3945M1421.03 101.063L1526.55 10.6582M1421.03 101.066L1431.53 162.102M1401.8 -10.3753L1411.01 43.7217M1392.93 -61.3986L1283.14 -27.3597L1384.68 -109.616M1393.17 -61.4102L1290.63 19.8151M1393.17 -61.4064L1401.96 -10.3774M1594.05 361.526L1481.22 449.949M1594.05 361.527L1610.44 446.634M1578.79 282.167L1707.88 261.291M1578.79 282.167L1690.77 181.5L1674.73 106.58M1594.05 361.525L1564.47 207.809M1564.47 207.809L1690.77 181.628M1564.47 207.809L1674.73 106.58M1551.03 138.008L1564.64 207.802M1551.03 138.008L1538.4 72.3969M1551.03 138.008L1674.74 106.766M1538.4 72.3969L1659.6 36.2159M1538.4 72.3969L1645.37 -29.963M1526.55 10.6582L1411.14 43.7189L1515.33 -47.6427L1526.55 10.6582ZM1526.55 10.6582L1645.37 -29.963M1526.55 10.6582L1631.94 -92.5845M1526.54 10.662L1538.4 72.4004M1504.74 -102.693L1401.8 -10.5607M1726.16 346.139L1594.05 361.528L1707.89 261.294M1707.88 261.291L1843.42 232.989M1707.88 261.291L1823.02 147.848M1707.89 261.29L1726.16 346.261L1745.7 437.478L1865.21 323.805L1843.42 232.989M1690.77 181.501L1707.88 261.167M1674.73 106.58L1803.81 67.5716M1674.73 106.58L1785.72 -7.58582M1659.61 36.4041L1551.11 138.006M1659.61 36.4041L1674.74 106.58M1659.61 36.4041L1645.37 -29.963M1659.61 36.4041L1785.56 -7.57831M1659.61 36.4041L1768.7 -78.6919M1645.37 -29.963L1768.69 -78.8199M1645.37 -29.963L1752.56 -145.932M1631.94 -92.5876L1645.4 -30.1562M1865.21 323.804L1726.16 346.262L1843.43 232.988M1865.21 323.805L1888.46 420.796M1865.21 323.805L2012.94 293.455M1865.21 323.805L1987.11 196.564L2013.06 293.45M1843.42 232.989L1823.02 147.848M1843.42 232.989L1986.99 196.571M1843.42 232.989L1962.59 105.666M1823.01 147.722L1690.77 181.5L1803.81 67.7607M1823.02 147.848L1803.82 67.7627M1823.02 147.848L1962.59 105.666M1823.02 147.848L1939.68 20.1195M1785.72 -7.58582L1803.82 67.7586L1939.68 20.116L1962.59 105.663L1987.12 196.561M1785.72 -7.58582L1768.7 -78.6929M2012.94 293.455L1888.58 420.792M2012.94 293.455L2171.5 254.188M2012.94 293.455L2140.53 150.886L2171.5 254.188M1962.59 105.666L2111.43 53.8695L2084.03 -37.4204M1987.12 196.561L2140.65 150.878M1987.12 196.561L2111.43 53.8669L2271.67 -9.01024M1939.68 20.1195L2084.03 -37.4204M1939.68 20.1195L2058.17 -123.545L2084.03 -37.4204M1785.73 -7.58613L1918.1 -60.2549M1918.1 -60.2549L1803.82 68.0119M1918.1 -60.2549L1939.69 20.3689M1897.66 -136.642L1785.6 -7.57998M2111.42 53.8671L2140.52 150.883M2140.52 150.883L2306.49 94.6447L2171.51 254.311M2140.52 150.883L2271.66 -8.94788L2306.37 94.5226M2084.03 -37.4204L2238.88 -106.385M2084.03 -37.4233L1962.59 105.789M2343.57 204.57L2532.54 142.527M2343.57 204.57L2488 25.3984M2306.5 94.6468L2343.58 204.699M2111.55 53.8627L2239 -106.393L2271.79 -8.95172M2207.91 -198.228L2084.2 -37.425M2532.54 142.532L2383.08 321.709M2532.54 142.532L2488.01 25.4023M2532.54 142.532L2742.91 65.9344M2532.54 142.532L2689.14 -59.0189L2488.01 25.4055L2446.18 -84.9034M2532.54 142.53L2579.93 267.669M2306.5 94.6439L2488.01 25.5253M2446.09 -84.9668L2271.66 -8.94644L2406.8 -188.701M2446.18 -84.9066L2306.45 94.5223M2638.5 -176.352L2487.88 25.5965M2124.12 1036.78L2029.38 1068.22M2029.38 1068.22L2046.37 1047.85M2029.38 1068.22L2017.88 1057.14M2276.88 1175.02L2345.02 1102.31M2239.17 1140.91L2201.17 1106.51M2201.17 1106.51L2162.79 1071.8M2201.17 1106.51L2266.93 1035.71M2201.17 1106.51L2306.14 1069.19M2239.17 1140.91L2306.14 1069.06M2344.98 1102.31L2239.38 1140.91M2162.79 1071.8L2227.26 1001.93M2162.79 1071.8L2266.93 1035.71M2266.93 1035.71L2306.14 1069.19M2266.93 1035.71L2227.26 1001.93M2266.93 1035.71L2339.94 963.185L2324.99 951.175M2266.93 1035.71L2380.36 995.738M2306.14 1069.19L2344.98 1102.31M2306.14 1069.19L2380.37 995.738M2306.14 1069.19L2420.25 1027.81M2162.79 1071.8L2124.12 1036.78M2124.12 1036.78L2143.83 1015.18M2124.12 1036.78L2227.26 1001.93M2227.26 1001.93L2214.54 991.093M2112.05 1025.85L2124.12 1036.78L2066.96 1104.35M2112.05 1025.85L2046.37 1047.86M2112.05 1025.85L2143.83 1015.18M2421.45 1167.52L2498.68 1090.86L2383.4 1135.06L2459.67 1059.51M2383.41 1135.06L2344.98 1102.31M2344.98 1102.31L2420.25 1027.81M2344.98 1102.31L2459.72 1059.51M2459.72 1059.51L2544.82 981.861L2640.67 901.588M2459.72 1059.51L2584.58 1012.11M2420.25 1027.81L2380.32 995.74M2420.25 1027.81L2504.39 951.199M2420.25 1027.81L2544.82 981.862M2420.25 1027.81L2537.19 1121.79M2251.34 977.704L2227.26 1001.93L2339.94 963.185M2339.94 963.185L2371.66 934.316L2379.79 931.483M2584.58 1011.99L2498.68 1090.86L2575 1061.02M2380.36 995.735L2339.94 963.183M2380.36 995.735L2463.5 920.11M2380.36 995.735L2504.43 951.195L2463.5 920.11M2463.5 920.11L2510.8 880.504M2463.5 920.11L2599.52 871.96M2584.58 1012.11L2504.43 951.196L2599.52 871.959M2639.03 946.474L2544.81 981.609M2640.67 901.587L2504.42 950.944M2017.88 1057.14L1958.22 1075.58M2066.96 1104.35L2162.79 1071.79L2104.3 1140.23M2066.96 1104.35L2029.46 1068.03M2066.96 1104.35L2014.65 1170.84M2201.17 1106.5L2104.3 1140.23M2104.3 1140.23L2066.8 1104.35M2141.34 1175.87L2201.37 1106.49M2029.38 1068.22L1942.15 1096.79M1942.14 1096.73L1958.1 1075.59M1929.97 1084.61L1942.14 1096.73L1896.58 1160.63L1978.48 1133.53M2066.96 1104.35L1978.48 1133.53M1978.48 1133.53L2029.37 1067.91M1978.48 1133.53L2014.65 1170.85M1978.48 1133.53L1931.49 1198.31M1978.47 1133.53L1942.14 1096.41M1942.15 1096.72L1861.7 1122.57M1861.7 1122.57L1876.9 1100.7M1861.7 1122.57L1849.16 1108.83M1861.7 1122.57L1896.58 1160.63M1861.69 1122.57L1786.92 1146.06L1802.29 1121.98M1786.92 1146.06L1773.16 1130.17L1732.89 1141.55M1820.59 1184.99L1861.69 1122.58M1717.63 1167.45L1732.89 1141.68M1867.35 1103.66L1773.16 1130.17M2027.35 1054.2L2046.37 1047.86M2251.59 977.696L2325.07 951.172M2445.16 906.157L2510.81 880.756M2510.81 880.754L2576.46 855.354M1867.35 1103.66L1876.74 1100.72M1876.74 1100.71L1929.96 1084.29L1958.43 1075.57M2143.83 1015.18L2197.24 997.306M2324.99 951.173L2371.66 934.315M1678.86 904.867L1825.53 874.559L1813.83 810.422L1678.86 904.867Z" stroke="white" stroke-opacity="0.5" stroke-width="0.75" stroke-miterlimit="1.33"/>
</g>
<defs>
<linearGradient id="paint0_linear" x1="-2.54178e-05" y1="650.795" x2="1919.59" y2="614.896" gradientUnits="userSpaceOnUse">
<stop offset="0.192708" stop-color="#313D6B" stop-opacity="0.05"/>
<stop offset="0.739583" stop-color="#313D6B" stop-opacity="0.25"/>
</linearGradient>
</defs>
</svg>
