<svg width="40" height="70" viewBox="0 0 40 70" fill="none" xmlns="http://www.w3.org/2000/svg">
<path d="M12.5 63.75C12.5 63.0596 13.0596 62.5 13.75 62.5H26.25C26.9404 62.5 27.5 63.0596 27.5 63.75C27.5 64.4404 26.9404 65 26.25 65H13.75C13.0596 65 12.5 64.4404 12.5 63.75Z" fill="url(#paint0_linear_13:392)"/>
<path d="M15.4947 39.9874C16.0813 40.5832 16.8837 40.9168 17.7197 40.9124C18.5819 40.8853 19.3951 40.5057 19.9697 39.8624L30.1947 29.6124C30.678 29.1292 30.678 28.3457 30.1947 27.8624C29.7115 27.3792 28.928 27.3792 28.4447 27.8624L18.1947 38.0874C17.9349 38.3319 17.5296 38.3319 17.2697 38.0874L12.1447 33.0874C11.6502 32.608 10.8643 32.608 10.3697 33.0874C10.1331 33.3221 10 33.6416 10 33.9749C10 34.3082 10.1331 34.6277 10.3697 34.8624L15.4947 39.9874Z" fill="url(#paint1_linear_13:392)"/>
<path fill-rule="evenodd" clip-rule="evenodd" d="M32.5 0C36.6421 0 40 3.35786 40 7.5V62.5C40 66.6421 36.6421 70 32.5 70H7.5C3.35786 70 0 66.6421 0 62.5V7.5C0 3.35787 3.35786 0 7.5 0H32.5ZM30 2.5H32.5C35.2614 2.5 37.5 4.73858 37.5 7.5V62.5C37.5 65.2614 35.2614 67.5 32.5 67.5H7.5C4.73858 67.5 2.5 65.2614 2.5 62.5V7.5C2.5 4.73858 4.73858 2.5 7.5 2.5H10V5C10 6.38071 11.1193 7.5 12.5 7.5H27.5C28.8807 7.5 30 6.38071 30 5V2.5ZM27.5 2.5H12.5V5H27.5V2.5Z" fill="url(#paint2_linear_13:392)"/>
<defs>
<linearGradient id="paint0_linear_13:392" x1="20.2047" y1="133.172" x2="104.739" y2="84.689" gradientUnits="userSpaceOnUse">
<stop stop-color="#00A5FF"/>
<stop offset="1" stop-color="#41D2BE"/>
</linearGradient>
<linearGradient id="paint1_linear_13:392" x1="20.2047" y1="133.172" x2="104.739" y2="84.689" gradientUnits="userSpaceOnUse">
<stop stop-color="#00A5FF"/>
<stop offset="1" stop-color="#41D2BE"/>
</linearGradient>
<linearGradient id="paint2_linear_13:392" x1="20.2047" y1="133.172" x2="104.739" y2="84.689" gradientUnits="userSpaceOnUse">
<stop stop-color="#00A5FF"/>
<stop offset="1" stop-color="#41D2BE"/>
</linearGradient>
</defs>
</svg>
