<svg width="56" height="56" viewBox="0 0 56 56" fill="none" xmlns="http://www.w3.org/2000/svg">
<rect width="56" height="56" rx="28" fill="url(#paint0_linear_83:2898)"/>
<path d="M14.5 22C14.5 21.1716 15.1716 20.5 16 20.5H38C38.8284 20.5 39.5 21.1716 39.5 22V38C39.5 38.8284 38.8284 39.5 38 39.5H16C15.1716 39.5 14.5 38.8284 14.5 38V22Z" stroke="white"/>
<path d="M14.5 22C14.5 21.1716 15.1716 20.5 16 20.5H38C38.8284 20.5 39.5 21.1716 39.5 22V24.7203C39.5 25.3054 39.1598 25.8371 38.6286 26.0823L28.4667 30.7724C27.5361 31.2019 26.4639 31.2019 25.5333 30.7724L15.3714 26.0823C14.8402 25.8371 14.5 25.3054 14.5 24.7203V22Z" stroke="white"/>
<rect x="31.5" y="13.5" width="11" height="11" rx="5.5" fill="url(#paint1_linear_83:2898)" stroke="white"/>
<path fill-rule="evenodd" clip-rule="evenodd" d="M36.39 21.2216C36.0556 21.2233 35.7346 21.0899 35.5 20.8516L34.1479 19.5002C34.0532 19.4063 34 19.2785 34 19.1452C34 19.0118 34.0532 18.884 34.1479 18.7902C34.3457 18.5984 34.6601 18.5984 34.8579 18.7902L36.21 20.0916C36.314 20.1894 36.476 20.1894 36.58 20.0916L39.1808 17.5C39.3741 17.3067 39.6875 17.3067 39.8808 17.5C40.0741 17.6933 40.0741 18.0067 39.8808 18.2L37.29 20.8016C37.0602 21.0589 36.7349 21.2107 36.39 21.2216Z" fill="white"/>
<defs>
<linearGradient id="paint0_linear_83:2898" x1="28.2866" y1="106.538" x2="106.636" y2="27.8996" gradientUnits="userSpaceOnUse">
<stop stop-color="#00A5FF"/>
<stop offset="1" stop-color="#41D2BE"/>
</linearGradient>
<linearGradient id="paint1_linear_83:2898" x1="37.0614" y1="35.8295" x2="53.8506" y2="18.9785" gradientUnits="userSpaceOnUse">
<stop stop-color="#00A5FF"/>
<stop offset="1" stop-color="#41D2BE"/>
</linearGradient>
</defs>
</svg>
