<svg width="56" height="56" viewBox="0 0 56 56" fill="none" xmlns="http://www.w3.org/2000/svg">
<rect width="56" height="56" rx="28" fill="url(#paint0_linear_83:2921)"/>
<path d="M16 29L15.6465 28.6464L15.5784 28.7145L15.5404 28.803L16 29ZM20.0355 33.0355L20.2297 33.4963L20.3199 33.4583L20.3891 33.3891L20.0355 33.0355ZM13 36L12.5404 35.803C12.4601 35.9904 12.5016 36.2078 12.6454 36.3525C12.7891 36.4971 13.0063 36.5399 13.1941 36.4608L13 36ZM35.3284 16.3284L35.682 15.9748V15.9748L35.3284 16.3284ZM35.3284 17.7426L35.682 18.0962L35.3284 17.7426ZM31.2929 13.7071L31.6465 14.0606L31.2929 13.7071ZM32.7071 13.7071L32.3536 14.0606V14.0606L32.7071 13.7071ZM16.3536 29.3535L31.6465 14.0606L30.9394 13.3535L15.6465 28.6464L16.3536 29.3535ZM32.3536 14.0606L34.9749 16.682L35.682 15.9748L33.0607 13.3535L32.3536 14.0606ZM34.9749 17.3891L19.682 32.682L20.3891 33.3891L35.682 18.0962L34.9749 17.3891ZM19.8414 32.5747L12.8059 35.5392L13.1941 36.4608L20.2297 33.4963L19.8414 32.5747ZM13.4596 36.1969L16.4596 29.1969L15.5404 28.803L12.5404 35.803L13.4596 36.1969ZM34.9749 16.682C35.1702 16.8772 35.1702 17.1938 34.9749 17.3891L35.682 18.0962C36.2678 17.5104 36.2678 16.5606 35.682 15.9748L34.9749 16.682ZM31.6465 14.0606C31.8417 13.8654 32.1583 13.8654 32.3536 14.0606L33.0607 13.3535C32.4749 12.7677 31.5251 12.7677 30.9394 13.3535L31.6465 14.0606Z" fill="white"/>
<path d="M15 31.5L17.5 34" stroke="white"/>
<path d="M13 39C16 39 16.5 36.5 20 36.5C23 36.5 25 39 25 41C25 42 24.5 43 23 43C22 43 21 42 21 39.5C21 36 23.5 33.5 26.5 33.5C32 33.5 30.5 42 35.5 42C39 42 39.5 38 43 38" stroke="white"/>
<defs>
<linearGradient id="paint0_linear_83:2921" x1="28.2866" y1="106.538" x2="106.636" y2="27.8996" gradientUnits="userSpaceOnUse">
<stop stop-color="#00A5FF"/>
<stop offset="1" stop-color="#41D2BE"/>
</linearGradient>
</defs>
</svg>
