<svg width="56" height="56" viewBox="0 0 56 56" fill="none" xmlns="http://www.w3.org/2000/svg">
<rect width="56" height="56" rx="28" fill="url(#paint0_linear_83:2908)"/>
<path d="M17.5 16C17.5 15.1716 18.1716 14.5 19 14.5H37C37.8284 14.5 38.5 15.1716 38.5 16V40C38.5 40.8284 37.8284 41.5 37 41.5H19C18.1716 41.5 17.5 40.8284 17.5 40V16Z" stroke="white"/>
<path d="M24.5 36.5H35.5" stroke="white" stroke-linecap="round"/>
<path d="M24.5 31.5H35.5" stroke="white" stroke-linecap="round"/>
<path d="M24.5 26.5H35.5" stroke="white" stroke-linecap="round"/>
<rect x="20.5" y="35.5" width="2" height="2" rx="0.5" stroke="white"/>
<rect x="20.5" y="30.5" width="2" height="2" rx="0.5" stroke="white"/>
<rect x="20.5" y="25.5" width="2" height="2" rx="0.5" stroke="white"/>
<defs>
<linearGradient id="paint0_linear_83:2908" x1="28.2866" y1="106.538" x2="106.636" y2="27.8996" gradientUnits="userSpaceOnUse">
<stop stop-color="#00A5FF"/>
<stop offset="1" stop-color="#41D2BE"/>
</linearGradient>
</defs>
</svg>
