<svg width="72" height="68" viewBox="0 0 72 68" fill="none" xmlns="http://www.w3.org/2000/svg">
<path d="M28.608 22.9874C29.1946 23.5832 29.997 23.9168 30.833 23.9124C31.6952 23.8853 32.5084 23.5057 33.083 22.8624L40.808 15.1124C41.2913 14.6292 41.2913 13.8457 40.808 13.3624C40.3248 12.8792 39.5413 12.8792 39.058 13.3624L31.308 21.0874C31.0482 21.3319 30.6429 21.3319 30.383 21.0874L26.6447 17.475C26.1502 16.9955 25.3643 16.9955 24.8697 17.475C24.6331 17.7097 24.5 18.0292 24.5 18.3625C24.5 18.6958 24.6331 19.0153 24.8697 19.25L28.608 22.9874Z" fill="url(#paint0_linear_13:397)"/>
<path fill-rule="evenodd" clip-rule="evenodd" d="M52 28C50.6193 28 49.5 29.1193 49.5 30.5V40.5C49.5 41.8807 50.6193 43 52 43H64.5C65.8807 43 67 41.8807 67 40.5V30.5C67 29.1193 65.8807 28 64.5 28H52ZM64.5 30.5H52V40.5H64.5V30.5Z" fill="url(#paint1_linear_13:397)"/>
<path d="M50.75 53C50.0596 53 49.5 53.5596 49.5 54.25C49.5 54.9404 50.0596 55.5 50.75 55.5H65.75C66.4404 55.5 67 54.9404 67 54.25C67 53.5596 66.4404 53 65.75 53H50.75Z" fill="url(#paint2_linear_13:397)"/>
<path d="M50.75 48C50.0596 48 49.5 48.5596 49.5 49.25C49.5 49.9404 50.0596 50.5 50.75 50.5H53.25C53.9404 50.5 54.5 49.9404 54.5 49.25C54.5 48.5596 53.9404 48 53.25 48H50.75Z" fill="url(#paint3_linear_13:397)"/>
<path d="M63.25 48C62.5596 48 62 48.5596 62 49.25C62 49.9404 62.5596 50.5 63.25 50.5H65.75C66.4404 50.5 67 49.9404 67 49.25C67 48.5596 66.4404 48 65.75 48H63.25Z" fill="url(#paint4_linear_13:397)"/>
<path d="M50.75 58C50.0596 58 49.5 58.5596 49.5 59.25C49.5 59.9404 50.0596 60.5 50.75 60.5H65.75C66.4404 60.5 67 59.9404 67 59.25C67 58.5596 66.4404 58 65.75 58H50.75Z" fill="url(#paint5_linear_13:397)"/>
<path fill-rule="evenodd" clip-rule="evenodd" d="M62 23H64.5C68.6421 23 72 26.3579 72 30.5V60.5C72 64.6421 68.6421 68 64.5 68H52C47.8579 68 44.5 64.6421 44.5 60.5V38H8.40383C7.25666 38 6.2567 38.7807 5.97847 39.8937L3.47847 49.8937C3.08401 51.4715 4.2774 53 5.90383 53H44.4999V55.5H5.90383C2.65097 55.5 0.264184 52.4431 1.05312 49.2873L3.55312 39.2873C3.87291 38.0081 4.66945 36.9484 5.72464 36.2783C4.9618 35.4006 4.5 34.2542 4.5 33V5.5C4.5 2.73858 6.73858 0.5 9.5 0.5H57C59.7614 0.5 62 2.73858 62 5.5V23ZM57 3H9.5C8.11929 3 7 4.11929 7 5.5V33C7 34.3807 8.11929 35.5 9.5 35.5H44.4999L44.5 30.5C44.5 26.3579 47.8579 23 52 23H59.5V5.5C59.5 4.11929 58.3807 3 57 3ZM64.5 25.5H52C49.2386 25.5 47 27.7386 47 30.5V60.5C47 63.2614 49.2386 65.5 52 65.5H64.5C67.2614 65.5 69.5 63.2614 69.5 60.5V30.5C69.5 27.7386 67.2614 25.5 64.5 25.5Z" fill="url(#paint6_linear_13:397)"/>
<defs>
<linearGradient id="paint0_linear_13:397" x1="36.8145" y1="128.916" x2="131.108" y2="29.2292" gradientUnits="userSpaceOnUse">
<stop stop-color="#00A5FF"/>
<stop offset="1" stop-color="#41D2BE"/>
</linearGradient>
<linearGradient id="paint1_linear_13:397" x1="36.8145" y1="128.916" x2="131.108" y2="29.2292" gradientUnits="userSpaceOnUse">
<stop stop-color="#00A5FF"/>
<stop offset="1" stop-color="#41D2BE"/>
</linearGradient>
<linearGradient id="paint2_linear_13:397" x1="36.8145" y1="128.916" x2="131.108" y2="29.2292" gradientUnits="userSpaceOnUse">
<stop stop-color="#00A5FF"/>
<stop offset="1" stop-color="#41D2BE"/>
</linearGradient>
<linearGradient id="paint3_linear_13:397" x1="36.8145" y1="128.916" x2="131.108" y2="29.2292" gradientUnits="userSpaceOnUse">
<stop stop-color="#00A5FF"/>
<stop offset="1" stop-color="#41D2BE"/>
</linearGradient>
<linearGradient id="paint4_linear_13:397" x1="36.8145" y1="128.916" x2="131.108" y2="29.2292" gradientUnits="userSpaceOnUse">
<stop stop-color="#00A5FF"/>
<stop offset="1" stop-color="#41D2BE"/>
</linearGradient>
<linearGradient id="paint5_linear_13:397" x1="36.8145" y1="128.916" x2="131.108" y2="29.2292" gradientUnits="userSpaceOnUse">
<stop stop-color="#00A5FF"/>
<stop offset="1" stop-color="#41D2BE"/>
</linearGradient>
<linearGradient id="paint6_linear_13:397" x1="36.8145" y1="128.916" x2="131.108" y2="29.2292" gradientUnits="userSpaceOnUse">
<stop stop-color="#00A5FF"/>
<stop offset="1" stop-color="#41D2BE"/>
</linearGradient>
</defs>
</svg>
